<svg width="20" height="20" viewBox="0 0 32 32" fill="none" xmlns="http://www.w3.org/2000/svg">
    <path
        d="M16.0021 5.58511C15.3712 4.95601 14.6423 4.42944 13.8415 4.02723C12.675 3.44134 11.3879 3.13543 10.0826 3.13379H10.0813C5.43102 3.13379 1.66797 6.91952 1.66797 11.5871C1.66797 13.2813 1.93861 14.8506 2.4088 16.305C3.5341 19.8634 5.81738 22.6735 8.20118 24.7222C10.5791 26.7658 13.1141 28.1014 14.8477 28.6922C15.2133 28.8201 15.6318 28.8671 16.0013 28.8671C16.3708 28.8671 16.7893 28.8201 17.1549 28.6922C18.8885 28.1014 21.4235 26.7658 23.8014 24.7222C26.1852 22.6735 28.4685 19.8634 29.5938 16.3049C30.064 14.8506 30.3346 13.2813 30.3346 11.5871C30.3346 6.91952 26.5716 3.13379 21.9213 3.13379C19.6173 3.13379 17.5193 4.0748 16.0021 5.58511Z"
        fill="#E42A61" stroke="#E42A61" stroke-width="2" />
</svg>
