<svg width="20" height="20" viewBox="0 0 25 25" fill="none" xmlns="http://www.w3.org/2000/svg">
<path d="M12.87 21.3975C12.53 21.5175 11.97 21.5175 11.63 21.3975C8.73 20.4075 2.25 16.2775 2.25 9.2775C2.25 6.1875 4.74 3.6875 7.81 3.6875C9.63 3.6875 11.24 4.5675 12.25 5.9275C13.26 4.5675 14.88 3.6875 16.69 3.6875C19.76 3.6875 22.25 6.1875 22.25 9.2775C22.25 16.2775 15.77 20.4075 12.87 21.3975Z" stroke="#D3D3D3" stroke-width="1.5" stroke-linecap="round" stroke-linejoin="round"/>
<path d="M12.87 21.3975C12.53 21.5175 11.97 21.5175 11.63 21.3975C8.73 20.4075 2.25 16.2775 2.25 9.2775C2.25 6.1875 4.74 3.6875 7.81 3.6875C9.63 3.6875 11.24 4.5675 12.25 5.9275C13.26 4.5675 14.88 3.6875 16.69 3.6875C19.76 3.6875 22.25 6.1875 22.25 9.2775C22.25 16.2775 15.77 20.4075 12.87 21.3975Z" stroke="black" stroke-opacity="0.2" stroke-width="1.5" stroke-linecap="round" stroke-linejoin="round"/>
</svg>
