<svg width="20" height="20" viewBox="0 0 20 20" fill="none" xmlns="http://www.w3.org/2000/svg">
<path d="M17.4998 7.20843V11.9584C17.4998 12.2417 17.4915 12.5168 17.4748 12.7751C16.8748 12.0918 15.9832 11.6667 14.9998 11.6667C13.1582 11.6667 11.6665 13.1584 11.6665 15.0001C11.6665 15.6251 11.8415 16.2167 12.1498 16.7167C12.3165 17.0001 12.5332 17.2584 12.7832 17.4751C12.5248 17.4917 12.2498 17.5001 11.9582 17.5001H7.20817C3.24983 17.5001 1.6665 15.9167 1.6665 11.9584V7.20843C1.6665 3.2501 3.24983 1.66675 7.20817 1.66675H11.9582C15.9165 1.66675 17.4998 3.2501 17.4998 7.20843Z" stroke="white" stroke-width="1.5" stroke-linecap="round" stroke-linejoin="round"/>
<path d="M5.59993 12.0167C6.26728 12.0167 6.80826 11.4757 6.80826 10.8084C6.80826 10.141 6.26728 9.6001 5.59993 9.6001C4.93259 9.6001 4.3916 10.141 4.3916 10.8084C4.3916 11.4757 4.93259 12.0167 5.59993 12.0167Z" stroke="white" stroke-width="1.5" stroke-linecap="round" stroke-linejoin="round"/>
<path d="M11.2331 9.99998V5.28334C11.2331 4.27501 10.5998 4.14165 9.96642 4.31665L7.55809 4.97496C7.12475 5.09163 6.81641 5.44166 6.81641 5.94166V6.78333V7.34999V10.8083" stroke="white" stroke-width="1.5" stroke-linecap="round" stroke-linejoin="round"/>
<path d="M10.0247 11.2084C10.6921 11.2084 11.2331 10.6674 11.2331 10.0001C11.2331 9.33275 10.6921 8.79175 10.0247 8.79175C9.35739 8.79175 8.81641 9.33275 8.81641 10.0001C8.81641 10.6674 9.35739 11.2084 10.0247 11.2084Z" stroke="white" stroke-width="1.5" stroke-linecap="round" stroke-linejoin="round"/>
<path d="M6.80811 7.35825L11.2331 6.1499" stroke="white" stroke-width="1.5" stroke-linecap="round" stroke-linejoin="round"/>
<path d="M18.3332 15.0001C18.3332 15.6251 18.1582 16.2167 17.8498 16.7167C17.2748 17.6834 16.2165 18.3334 14.9998 18.3334C13.7832 18.3334 12.7248 17.6834 12.1498 16.7167C11.8415 16.2167 11.6665 15.6251 11.6665 15.0001C11.6665 13.1584 13.1582 11.6667 14.9998 11.6667C16.8415 11.6667 18.3332 13.1584 18.3332 15.0001Z" stroke="white" stroke-width="1.5" stroke-miterlimit="10" stroke-linecap="round" stroke-linejoin="round"/>
<path d="M16.2416 14.9834H13.7583" stroke="white" stroke-width="1.5" stroke-miterlimit="10" stroke-linecap="round" stroke-linejoin="round"/>
<path d="M15 13.7668V16.2585" stroke="white" stroke-width="1.5" stroke-miterlimit="10" stroke-linecap="round" stroke-linejoin="round"/>
</svg>
