<svg width="20" height="20" viewBox="0 0 20 20" fill="none" xmlns="http://www.w3.org/2000/svg">
<path d="M8.3335 15.8336C8.3335 16.7502 9.0835 17.5002 10.0002 17.5002C10.9168 17.5002 11.6668 16.7502 11.6668 15.8336C11.6668 14.9169 10.9168 14.1669 10.0002 14.1669C9.0835 14.1669 8.3335 14.9169 8.3335 15.8336Z" fill="white"/>
<path d="M8.3335 4.16683C8.3335 5.0835 9.0835 5.8335 10.0002 5.8335C10.9168 5.8335 11.6668 5.0835 11.6668 4.16683C11.6668 3.25016 10.9168 2.50016 10.0002 2.50016C9.0835 2.50016 8.3335 3.25016 8.3335 4.16683Z" fill="white"/>
<path d="M8.3335 10.0003C8.3335 10.917 9.0835 11.667 10.0002 11.667C10.9168 11.667 11.6668 10.917 11.6668 10.0003C11.6668 9.08366 10.9168 8.33366 10.0002 8.33366C9.0835 8.33366 8.3335 9.08366 8.3335 10.0003Z" fill="white"/>
</svg>
