<svg width="18" height="22" viewBox="0 0 18 22" fill="none" xmlns="http://www.w3.org/2000/svg">
<path d="M17.0049 6V16C17.0049 20 16.0049 21 12.0049 21H6.00488C2.00488 21 1.00488 20 1.00488 16V6C1.00488 2 2.00488 1 6.00488 1H12.0049C16.0049 1 17.0049 2 17.0049 6Z" stroke="#7F8489" stroke-width="1.5" stroke-linecap="round" stroke-linejoin="round"/>
<path d="M11.0049 4.5H7.00488" stroke="#7F8489" stroke-width="1.5" stroke-linecap="round" stroke-linejoin="round"/>
<path d="M9.00508 18.1C9.86112 18.1 10.5551 17.406 10.5551 16.55C10.5551 15.694 9.86112 15 9.00508 15C8.14904 15 7.45508 15.694 7.45508 16.55C7.45508 17.406 8.14904 18.1 9.00508 18.1Z" stroke="#7F8489" stroke-width="1.5" stroke-linecap="round" stroke-linejoin="round"/>
</svg>
